<?xml version="1.0" encoding="UTF-8"?>
<svg width="1422px" height="512px" viewBox="0 0 1422 512" version="1.1" xmlns="http://www.w3.org/2000/svg" xmlns:xlink="http://www.w3.org/1999/xlink">
    <!-- Generator: Sketch 51.3 (57544) - http://www.bohemiancoding.com/sketch -->
    <title>Artboard 6</title>
    <desc>Created with Sketch.</desc>
    <defs></defs>
    <g id="Artboard-6" stroke="none" stroke-width="1" fill="none" fill-rule="evenodd">
        <path d="M248.073804,194.058978 C245.897147,191.64047 242.994982,188.798766 239.36722,185.533781 C235.739459,182.268796 231.083902,179.245707 225.400409,176.464423 C219.716916,173.683139 212.945196,171.32513 205.085047,169.390324 C197.224897,167.455518 188.216091,166.488129 178.05836,166.488129 C169.351732,166.488129 162.15678,167.334594 156.473287,169.027549 C150.789794,170.720505 146.315622,173.018052 143.050637,175.920261 C139.785652,178.822471 137.488104,182.087407 136.157925,185.715168 C134.827746,189.34293 134.162666,192.970637 134.162666,196.598398 C134.162666,203.370219 136.762523,209.355936 141.962314,214.555727 C147.162106,219.755518 156.412758,223.806458 169.71455,226.708667 L200.550368,233.601379 C212.401055,236.261737 223.163252,239.526674 232.837283,243.396286 C242.511313,247.265898 250.794577,252.042379 257.687324,257.725872 C264.58007,263.409364 269.900707,270.241546 273.649394,278.222621 C277.398081,286.203696 279.272396,295.635734 279.272396,306.519018 C279.272396,318.611556 277.337619,329.555139 273.468007,339.350095 C269.598395,349.14505 263.612678,357.549238 255.510678,364.56291 C247.408677,371.576582 237.009251,377.018143 224.312086,380.887755 C211.614921,384.757367 196.559937,386.692144 179.146682,386.692144 C162.700831,386.692144 148.310927,385.301523 135.976538,382.520239 C123.642149,379.738956 113.242723,376.534481 104.777946,372.90672 C96.3131694,369.278958 89.6623733,365.832637 84.8253581,362.567651 C79.9883429,359.302666 76.9652538,357.186504 75.756,356.219101 L100.424654,318.490571 C101.392057,319.457974 103.87099,321.392751 107.861528,324.29496 C111.852065,327.197169 117.172702,330.220258 123.823598,333.364318 C130.474494,336.508378 138.515911,339.350082 147.948091,341.889515 C157.38027,344.428948 167.90062,345.698645 179.509457,345.698645 C189.183487,345.698645 197.103981,344.791719 203.271175,342.977838 C209.438369,341.163957 214.21485,338.805948 217.600761,335.903739 C220.986672,333.001529 223.344681,329.61567 224.67486,325.746057 C226.005039,321.876445 226.670119,317.885968 226.670119,313.774505 C226.670119,304.584176 222.98195,297.2683 215.605502,291.826658 C208.229054,286.385016 197.890089,282.334077 184.588297,279.673718 L150.487511,272.781006 C142.264585,271.088051 134.102244,268.548656 126.000244,265.162745 C117.898244,261.776835 110.582368,257.242201 104.052397,251.558708 C97.5224268,245.875215 92.2622517,238.982572 88.2717142,230.880572 C84.2811767,222.778571 82.2859378,213.286071 82.2859378,202.402787 C82.2859378,191.519503 84.2207149,181.422385 88.090327,172.111131 C91.9599392,162.799877 97.8247321,154.637536 105.684882,147.623864 C113.545031,140.610192 123.460764,135.10817 135.432376,131.117632 C147.403989,127.127095 161.370661,125.131856 177.332811,125.131856 C189.425349,125.131856 199.824775,125.796936 208.531403,127.127115 C217.23803,128.457294 224.674829,130.0293 230.842024,131.843181 C237.009218,133.657062 241.967084,135.531377 245.715771,137.466183 C249.464458,139.400989 252.306162,140.972995 254.240968,142.182249 C258.836132,145.084458 262.403377,148.591242 264.94281,152.702705 C267.482243,156.814168 268.751941,160.804645 268.751941,164.674257 C268.751941,168.78572 267.905476,172.473889 266.21252,175.738874 C264.519565,179.00386 262.584788,181.906025 260.408131,184.445458 C258.231474,186.984891 255.994388,189.040592 253.696806,190.612622 C251.399224,192.184652 249.524909,193.333425 248.073804,194.058978 Z M488.371486,154.516576 C488.371486,146.0518 490.850419,140.066083 495.80836,136.559247 C500.7663,133.052411 507.477558,131.29902 515.942335,131.29902 C521.988603,131.29902 527.369702,132.024561 532.085792,133.475665 C536.801882,134.92677 539.764509,135.894159 540.973763,136.37786 L540.973763,380.52498 L488.371486,380.52498 L488.371486,273.869329 L379.539189,273.869329 L379.539189,380.52498 L326.936911,380.52498 L326.936911,154.516576 C326.936911,146.0518 329.415845,140.066083 334.373785,136.559247 C339.331726,133.052411 346.042984,131.29902 354.50776,131.29902 C360.554029,131.29902 365.935128,132.024561 370.651218,133.475665 C375.367307,134.92677 378.329935,135.894159 379.539189,136.37786 L379.539189,228.522539 L488.371486,228.522539 L488.371486,154.516576 Z M575.941177,380.52498 C581.261894,366.255786 587.005763,351.503111 593.172957,336.266513 C599.340152,321.029915 605.507254,305.974931 611.674448,291.101109 C617.841642,276.227288 623.887821,261.776922 629.813164,247.749578 C635.738508,233.722234 641.24053,220.843874 646.319396,209.114112 C651.398262,197.38435 655.932896,187.045385 659.923433,178.096907 C663.913971,169.148429 667.118445,162.255786 669.536953,157.418771 C674.857669,146.051785 680.782924,138.312677 687.312895,134.201214 C693.842865,130.089751 701.702897,128.034051 710.893226,128.034051 C720.325405,128.034051 727.520357,129.36421 732.478298,132.024568 C737.436239,134.684927 740.88256,136.982474 742.817366,138.91728 C747.17068,146.414654 752.370393,156.511772 758.416662,169.208936 C764.462931,181.906101 770.811418,195.933235 777.462314,211.290758 C784.11321,226.648281 790.824468,242.610192 797.596289,259.176969 C804.36811,275.743746 810.777059,291.766118 816.823328,307.244567 C822.869597,322.723015 828.37162,336.871073 833.32956,349.689163 C838.287501,362.507253 842.217517,372.785756 845.119726,380.52498 L789.25248,380.52498 C787.317674,375.204264 784.596893,368.130235 781.090057,359.302682 C777.583221,350.47513 773.411358,339.894318 768.574343,327.559929 L649.947139,327.559929 C645.110124,339.894318 640.998723,350.414668 637.612812,359.121295 C634.226902,367.827923 631.44566,374.962413 629.269003,380.52498 L575.941177,380.52498 Z M709.442128,179.910779 C708.232875,182.329287 706.237636,186.924382 703.456352,193.696203 C700.675068,200.468025 697.410132,208.569903 693.661445,218.002083 C689.912759,227.434263 685.740895,237.773228 681.145731,249.019288 C676.550567,260.265348 672.076395,271.450778 667.723081,282.575913 L750.798401,282.575913 C746.445088,271.450778 742.031378,260.265348 737.557139,249.019288 C733.082899,237.773228 728.911036,227.494724 725.041424,218.18347 C721.171812,208.872216 717.846414,200.830799 715.06513,194.058978 C712.283847,187.287156 710.409531,182.571137 709.442128,179.910779 Z M880.08714,159.595417 C880.08714,140.731058 889.881949,131.29902 909.47186,131.29902 L976.947884,131.29902 C981.543049,131.29902 986.379991,131.540867 991.458857,132.024568 C996.537723,132.50827 1001.13282,133.112888 1005.24428,133.83844 C1015.64386,136.015097 1024.77359,139.52188 1032.63374,144.358895 C1040.49389,149.19591 1047.02377,155.121165 1052.22356,162.134837 C1057.42335,169.148509 1061.2929,176.887617 1063.83234,185.352394 C1066.37177,193.81717 1067.64147,202.765514 1067.64147,212.197694 C1067.64147,218.969515 1066.73454,225.801697 1064.92066,232.694443 C1063.10678,239.58719 1060.44646,246.177524 1056.93962,252.465644 C1053.43279,258.753764 1049.01908,264.558095 1043.69836,269.878811 C1038.37764,275.199528 1032.08962,279.552777 1024.8341,282.938687 C1028.70371,288.259404 1033.35926,295.031124 1038.80091,303.254049 C1044.24255,311.476975 1049.80503,320.183472 1055.48853,329.373801 C1061.17202,338.56413 1066.49266,347.693859 1071.4506,356.763262 C1076.40854,365.832666 1080.5804,373.753159 1083.96631,380.52498 L1023.74577,380.52498 C1022.05282,376.897219 1019.33204,371.51612 1015.58335,364.381523 C1011.83466,357.246926 1007.54188,349.507817 1002.70486,341.163966 C997.867846,332.820115 992.728595,324.415927 987.286953,315.951151 C981.845311,307.486374 976.706059,299.989113 971.869044,293.459143 C964.12982,293.459143 957.418562,293.398681 951.735069,293.277755 C946.051576,293.15683 939.340318,292.733598 931.601094,292.008045 L931.601094,380.52498 L880.08714,380.52498 L880.08714,159.595417 Z M1013.95087,211.83492 C1013.95087,203.611994 1012.25794,196.35658 1008.87202,190.06846 C1005.48611,183.78034 999.319013,179.185245 990.370534,176.283036 C987.468325,175.315633 983.90108,174.590091 979.668692,174.10639 C975.436304,173.622688 971.264441,173.380841 967.152978,173.380841 L931.601094,173.380841 L931.601094,248.475126 C932.810348,248.958828 935.59159,249.502984 939.944903,250.107611 C944.298217,250.712238 950.82809,251.014547 959.534717,251.014547 C970.17615,251.014547 979.003571,249.926235 986.017243,247.749578 C993.030915,245.572921 998.593399,242.670755 1002.70486,239.042994 C1006.81632,235.415233 1009.71849,231.24337 1011.41145,226.52728 C1013.1044,221.81119 1013.95087,216.913786 1013.95087,211.83492 Z M1177.70316,235.052476 C1183.02388,229.489909 1189.49329,222.899575 1197.11159,215.281276 C1204.72989,207.662977 1212.77131,199.802945 1221.23608,191.700945 C1229.70086,183.598944 1238.22597,175.497065 1246.81167,167.395065 C1255.39738,159.293064 1263.31787,151.977189 1270.57339,145.447218 C1275.41041,141.093905 1279.94504,137.647583 1284.17743,135.10815 C1288.40982,132.568717 1294.27461,131.29902 1301.77198,131.29902 C1307.0927,131.29902 1311.80872,132.145484 1315.92018,133.83844 C1320.03165,135.531395 1323.53843,137.345249 1326.44064,139.280055 C1329.34285,141.214861 1331.57993,143.149638 1333.15196,145.084444 C1334.72399,147.01925 1335.63092,148.107562 1335.87277,148.349413 C1332.24501,151.251622 1327.58945,155.302561 1321.90596,160.502353 C1316.22247,165.702144 1309.9949,171.506475 1303.22308,177.91552 C1296.45126,184.324565 1289.43769,190.9149 1282.18217,197.686721 C1274.92665,204.458542 1268.034,211.048876 1261.50403,217.457922 C1254.97406,223.866967 1249.04881,229.792221 1243.72809,235.233864 C1238.40738,240.675506 1234.29597,244.968292 1231.39376,248.112352 C1254.12774,271.088174 1274.98705,293.277648 1293.97234,314.681441 C1312.95762,336.085233 1330.552,358.03286 1346.756,380.52498 L1282.18217,380.52498 C1274.44295,370.609099 1265.85737,360.209673 1256.42519,349.326389 C1246.99301,338.443104 1237.50051,327.922754 1227.94741,317.765022 C1218.3943,307.60729 1209.20411,298.175252 1200.37656,289.468625 C1191.54901,280.761998 1183.99128,273.627507 1177.70316,268.06494 L1177.70316,380.52498 L1125.10089,380.52498 L1125.10089,154.516576 C1125.10089,146.0518 1127.57982,140.066083 1132.53776,136.559247 C1137.4957,133.052411 1144.20696,131.29902 1152.67174,131.29902 C1158.71801,131.29902 1164.0991,132.024561 1168.81519,133.475665 C1173.53128,134.92677 1176.49391,135.894159 1177.70316,136.37786 L1177.70316,235.052476 Z" id="SHARK-Copy" fill="#4A4A4A"></path>
    </g>
</svg>